{
	"asset":{
		"generator":"Khronos glTF Blender I/O v4.3.47",
		"version":"2.0"
	},
	"extensionsUsed":[
		"KHR_texture_transform"
	],
	"extensionsRequired":[
		"KHR_texture_transform"
	],
	"scene":0,
	"scenes":[
		{
			"name":"Scene",
			"nodes":[
				0,
				1,
				2,
				3,
				4,
				5,
				6,
				7,
				8,
				9,
				10,
				11,
				12,
				13,
				14,
				15
			]
		}
	],
	"nodes":[
		{
			"mesh":0,
			"name":"Cube.008",
			"scale":[
				0.5,
				1,
				0.25
			],
			"translation":[
				-1,
				1,
				3
			]
		},
		{
			"mesh":1,
			"name":"Cube.001",
			"scale":[
				0.5,
				1,
				0.25
			],
			"translation":[
				1,
				1,
				3
			]
		},
		{
			"mesh":2,
			"name":"Cube.002",
			"scale":[
				0.5,
				1,
				0.25
			],
			"translation":[
				-1,
				1,
				-5
			]
		},
		{
			"mesh":3,
			"name":"Cube.003",
			"scale":[
				0.5,
				1,
				0.25
			],
			"translation":[
				1,
				1,
				-5
			]
		},
		{
			"mesh":4,
			"name":"Cube.004",
			"scale":[
				0.5,
				1,
				0.25
			],
			"translation":[
				-1,
				1,
				1
			]
		},
		{
			"mesh":5,
			"name":"Cube.005",
			"scale":[
				0.5,
				1,
				0.25
			],
			"translation":[
				1,
				1,
				-7
			]
		},
		{
			"mesh":6,
			"name":"Cube.006",
			"scale":[
				0.5,
				1,
				0.25
			],
			"translation":[
				-1,
				1,
				-7
			]
		},
		{
			"mesh":7,
			"name":"Cube.007",
			"scale":[
				0.5,
				1,
				0.25
			],
			"translation":[
				1,
				1,
				1
			]
		},
		{
			"mesh":8,
			"name":"Cube.009",
			"scale":[
				0.5,
				1,
				0.25
			],
			"translation":[
				-1,
				1,
				-1
			]
		},
		{
			"mesh":9,
			"name":"Cube.010",
			"scale":[
				0.5,
				1,
				0.25
			],
			"translation":[
				1,
				1,
				-3
			]
		},
		{
			"mesh":10,
			"name":"Cube.011",
			"scale":[
				0.5,
				1,
				0.25
			],
			"translation":[
				-1,
				1,
				-11
			]
		},
		{
			"mesh":11,
			"name":"Cube.012",
			"scale":[
				0.5,
				1,
				0.25
			],
			"translation":[
				1,
				1,
				-11
			]
		},
		{
			"mesh":12,
			"name":"Cube.013",
			"scale":[
				0.5,
				1,
				0.25
			],
			"translation":[
				-1,
				1,
				-3
			]
		},
		{
			"mesh":13,
			"name":"Cube.014",
			"scale":[
				0.5,
				1,
				0.25
			],
			"translation":[
				1,
				1,
				-9
			]
		},
		{
			"mesh":14,
			"name":"Cube.015",
			"scale":[
				0.5,
				1,
				0.25
			],
			"translation":[
				-1,
				1,
				-9
			]
		},
		{
			"mesh":15,
			"name":"Cube.016",
			"scale":[
				0.5,
				1,
				0.25
			],
			"translation":[
				1,
				1,
				-1
			]
		}
	],
	"materials":[
		{
			"doubleSided":true,
			"name":"Material",
			"normalTexture":{
				"extensions":{
					"KHR_texture_transform":{
						"offset":[
							-3.0049998760223344,
							0.7500001800909218
						],
						"rotation":1.5707963705062866,
						"scale":[
							9.999995231628418,
							4.119999885559082
						]
					}
				},
				"index":0
			},
			"pbrMetallicRoughness":{
				"baseColorTexture":{
					"extensions":{
						"KHR_texture_transform":{
							"offset":[
								-3.0049998760223344,
								0.7500001800909218
							],
							"rotation":1.5707963705062866,
							"scale":[
								9.999995231628418,
								4.119999885559082
							]
						}
					},
					"index":1
				},
				"metallicRoughnessTexture":{
					"extensions":{
						"KHR_texture_transform":{
							"offset":[
								-3.0049998760223344,
								0.7500001800909218
							],
							"rotation":1.5707963705062866,
							"scale":[
								9.999995231628418,
								4.119999885559082
							]
						}
					},
					"index":2
				}
			}
		},
		{
			"doubleSided":true,
			"name":"Material.001",
			"normalTexture":{
				"index":3
			},
			"pbrMetallicRoughness":{
				"baseColorTexture":{
					"index":4
				},
				"metallicFactor":0,
				"roughnessFactor":0.5
			}
		},
		{
			"doubleSided":true,
			"name":"Material.002",
			"normalTexture":{
				"extensions":{
					"KHR_texture_transform":{
						"offset":[
							-3.0049998760223344,
							0.7500001800909218
						],
						"rotation":1.5707963705062866,
						"scale":[
							9.999995231628418,
							4.119999885559082
						]
					}
				},
				"index":5
			},
			"pbrMetallicRoughness":{
				"baseColorTexture":{
					"extensions":{
						"KHR_texture_transform":{
							"offset":[
								-3.0049998760223344,
								0.7500001800909218
							],
							"rotation":1.5707963705062866,
							"scale":[
								9.999995231628418,
								4.119999885559082
							]
						}
					},
					"index":6
				},
				"metallicRoughnessTexture":{
					"extensions":{
						"KHR_texture_transform":{
							"offset":[
								-3.0049998760223344,
								0.7500001800909218
							],
							"rotation":1.5707963705062866,
							"scale":[
								9.999995231628418,
								4.119999885559082
							]
						}
					},
					"index":7
				}
			}
		},
		{
			"doubleSided":true,
			"name":"Material.003",
			"normalTexture":{
				"index":8
			},
			"pbrMetallicRoughness":{
				"baseColorTexture":{
					"index":9
				},
				"metallicFactor":0,
				"roughnessFactor":0.5
			}
		},
		{
			"doubleSided":true,
			"name":"Material.004",
			"normalTexture":{
				"extensions":{
					"KHR_texture_transform":{
						"offset":[
							-3.0049998760223344,
							0.7500001800909218
						],
						"rotation":1.5707963705062866,
						"scale":[
							9.999995231628418,
							4.119999885559082
						]
					}
				},
				"index":10
			},
			"pbrMetallicRoughness":{
				"baseColorTexture":{
					"extensions":{
						"KHR_texture_transform":{
							"offset":[
								-3.0049998760223344,
								0.7500001800909218
							],
							"rotation":1.5707963705062866,
							"scale":[
								9.999995231628418,
								4.119999885559082
							]
						}
					},
					"index":11
				},
				"metallicRoughnessTexture":{
					"extensions":{
						"KHR_texture_transform":{
							"offset":[
								-3.0049998760223344,
								0.7500001800909218
							],
							"rotation":1.5707963705062866,
							"scale":[
								9.999995231628418,
								4.119999885559082
							]
						}
					},
					"index":12
				}
			}
		},
		{
			"doubleSided":true,
			"name":"Material.005",
			"normalTexture":{
				"index":13
			},
			"pbrMetallicRoughness":{
				"baseColorTexture":{
					"index":14
				},
				"metallicFactor":0,
				"roughnessFactor":0.5
			}
		},
		{
			"doubleSided":true,
			"name":"Material.006",
			"normalTexture":{
				"extensions":{
					"KHR_texture_transform":{
						"offset":[
							-3.0049998760223344,
							0.7500001800909218
						],
						"rotation":1.5707963705062866,
						"scale":[
							9.999995231628418,
							4.119999885559082
						]
					}
				},
				"index":15
			},
			"pbrMetallicRoughness":{
				"baseColorTexture":{
					"extensions":{
						"KHR_texture_transform":{
							"offset":[
								-3.0049998760223344,
								0.7500001800909218
							],
							"rotation":1.5707963705062866,
							"scale":[
								9.999995231628418,
								4.119999885559082
							]
						}
					},
					"index":16
				},
				"metallicRoughnessTexture":{
					"extensions":{
						"KHR_texture_transform":{
							"offset":[
								-3.0049998760223344,
								0.7500001800909218
							],
							"rotation":1.5707963705062866,
							"scale":[
								9.999995231628418,
								4.119999885559082
							]
						}
					},
					"index":17
				}
			}
		},
		{
			"doubleSided":true,
			"name":"Material.007",
			"normalTexture":{
				"index":18
			},
			"pbrMetallicRoughness":{
				"baseColorTexture":{
					"index":19
				},
				"metallicFactor":0,
				"roughnessFactor":0.5
			}
		},
		{
			"doubleSided":true,
			"name":"Material.008",
			"normalTexture":{
				"extensions":{
					"KHR_texture_transform":{
						"offset":[
							-3.0049998760223344,
							0.7500001800909218
						],
						"rotation":1.5707963705062866,
						"scale":[
							9.999995231628418,
							4.119999885559082
						]
					}
				},
				"index":20
			},
			"pbrMetallicRoughness":{
				"baseColorTexture":{
					"extensions":{
						"KHR_texture_transform":{
							"offset":[
								-3.0049998760223344,
								0.7500001800909218
							],
							"rotation":1.5707963705062866,
							"scale":[
								9.999995231628418,
								4.119999885559082
							]
						}
					},
					"index":21
				},
				"metallicRoughnessTexture":{
					"extensions":{
						"KHR_texture_transform":{
							"offset":[
								-3.0049998760223344,
								0.7500001800909218
							],
							"rotation":1.5707963705062866,
							"scale":[
								9.999995231628418,
								4.119999885559082
							]
						}
					},
					"index":22
				}
			}
		},
		{
			"doubleSided":true,
			"name":"Material.009",
			"normalTexture":{
				"index":23
			},
			"pbrMetallicRoughness":{
				"baseColorTexture":{
					"index":24
				},
				"metallicFactor":0,
				"roughnessFactor":0.5
			}
		},
		{
			"doubleSided":true,
			"name":"Material.010",
			"normalTexture":{
				"extensions":{
					"KHR_texture_transform":{
						"offset":[
							-3.0049998760223344,
							0.7500001800909218
						],
						"rotation":1.5707963705062866,
						"scale":[
							9.999995231628418,
							4.119999885559082
						]
					}
				},
				"index":25
			},
			"pbrMetallicRoughness":{
				"baseColorTexture":{
					"extensions":{
						"KHR_texture_transform":{
							"offset":[
								-3.0049998760223344,
								0.7500001800909218
							],
							"rotation":1.5707963705062866,
							"scale":[
								9.999995231628418,
								4.119999885559082
							]
						}
					},
					"index":26
				},
				"metallicRoughnessTexture":{
					"extensions":{
						"KHR_texture_transform":{
							"offset":[
								-3.0049998760223344,
								0.7500001800909218
							],
							"rotation":1.5707963705062866,
							"scale":[
								9.999995231628418,
								4.119999885559082
							]
						}
					},
					"index":27
				}
			}
		},
		{
			"doubleSided":true,
			"name":"Material.011",
			"normalTexture":{
				"index":28
			},
			"pbrMetallicRoughness":{
				"baseColorTexture":{
					"index":29
				},
				"metallicFactor":0,
				"roughnessFactor":0.5
			}
		},
		{
			"doubleSided":true,
			"name":"Material.012",
			"normalTexture":{
				"extensions":{
					"KHR_texture_transform":{
						"offset":[
							-3.0049998760223344,
							0.7500001800909218
						],
						"rotation":1.5707963705062866,
						"scale":[
							9.999995231628418,
							4.119999885559082
						]
					}
				},
				"index":30
			},
			"pbrMetallicRoughness":{
				"baseColorTexture":{
					"extensions":{
						"KHR_texture_transform":{
							"offset":[
								-3.0049998760223344,
								0.7500001800909218
							],
							"rotation":1.5707963705062866,
							"scale":[
								9.999995231628418,
								4.119999885559082
							]
						}
					},
					"index":31
				},
				"metallicRoughnessTexture":{
					"extensions":{
						"KHR_texture_transform":{
							"offset":[
								-3.0049998760223344,
								0.7500001800909218
							],
							"rotation":1.5707963705062866,
							"scale":[
								9.999995231628418,
								4.119999885559082
							]
						}
					},
					"index":32
				}
			}
		},
		{
			"doubleSided":true,
			"name":"Material.013",
			"normalTexture":{
				"index":33
			},
			"pbrMetallicRoughness":{
				"baseColorTexture":{
					"index":34
				},
				"metallicFactor":0,
				"roughnessFactor":0.5
			}
		},
		{
			"doubleSided":true,
			"name":"Material.014",
			"normalTexture":{
				"extensions":{
					"KHR_texture_transform":{
						"offset":[
							-3.0049998760223344,
							0.7500001800909218
						],
						"rotation":1.5707963705062866,
						"scale":[
							9.999995231628418,
							4.119999885559082
						]
					}
				},
				"index":35
			},
			"pbrMetallicRoughness":{
				"baseColorTexture":{
					"extensions":{
						"KHR_texture_transform":{
							"offset":[
								-3.0049998760223344,
								0.7500001800909218
							],
							"rotation":1.5707963705062866,
							"scale":[
								9.999995231628418,
								4.119999885559082
							]
						}
					},
					"index":36
				},
				"metallicRoughnessTexture":{
					"extensions":{
						"KHR_texture_transform":{
							"offset":[
								-3.0049998760223344,
								0.7500001800909218
							],
							"rotation":1.5707963705062866,
							"scale":[
								9.999995231628418,
								4.119999885559082
							]
						}
					},
					"index":37
				}
			}
		},
		{
			"doubleSided":true,
			"name":"Material.015",
			"normalTexture":{
				"index":38
			},
			"pbrMetallicRoughness":{
				"baseColorTexture":{
					"index":39
				},
				"metallicFactor":0,
				"roughnessFactor":0.5
			}
		},
		{
			"doubleSided":true,
			"name":"Material.016",
			"normalTexture":{
				"extensions":{
					"KHR_texture_transform":{
						"offset":[
							-3.0049998760223344,
							0.7500001800909218
						],
						"rotation":1.5707963705062866,
						"scale":[
							9.999995231628418,
							4.119999885559082
						]
					}
				},
				"index":40
			},
			"pbrMetallicRoughness":{
				"baseColorTexture":{
					"extensions":{
						"KHR_texture_transform":{
							"offset":[
								-3.0049998760223344,
								0.7500001800909218
							],
							"rotation":1.5707963705062866,
							"scale":[
								9.999995231628418,
								4.119999885559082
							]
						}
					},
					"index":41
				},
				"metallicRoughnessTexture":{
					"extensions":{
						"KHR_texture_transform":{
							"offset":[
								-3.0049998760223344,
								0.7500001800909218
							],
							"rotation":1.5707963705062866,
							"scale":[
								9.999995231628418,
								4.119999885559082
							]
						}
					},
					"index":42
				}
			}
		},
		{
			"doubleSided":true,
			"name":"Material.017",
			"normalTexture":{
				"index":43
			},
			"pbrMetallicRoughness":{
				"baseColorTexture":{
					"index":44
				},
				"metallicFactor":0,
				"roughnessFactor":0.5
			}
		},
		{
			"doubleSided":true,
			"name":"Material.018",
			"normalTexture":{
				"extensions":{
					"KHR_texture_transform":{
						"offset":[
							-3.0049998760223344,
							0.7500001800909218
						],
						"rotation":1.5707963705062866,
						"scale":[
							9.999995231628418,
							4.119999885559082
						]
					}
				},
				"index":45
			},
			"pbrMetallicRoughness":{
				"baseColorTexture":{
					"extensions":{
						"KHR_texture_transform":{
							"offset":[
								-3.0049998760223344,
								0.7500001800909218
							],
							"rotation":1.5707963705062866,
							"scale":[
								9.999995231628418,
								4.119999885559082
							]
						}
					},
					"index":46
				},
				"metallicRoughnessTexture":{
					"extensions":{
						"KHR_texture_transform":{
							"offset":[
								-3.0049998760223344,
								0.7500001800909218
							],
							"rotation":1.5707963705062866,
							"scale":[
								9.999995231628418,
								4.119999885559082
							]
						}
					},
					"index":47
				}
			}
		},
		{
			"doubleSided":true,
			"name":"Material.019",
			"normalTexture":{
				"index":48
			},
			"pbrMetallicRoughness":{
				"baseColorTexture":{
					"index":49
				},
				"metallicFactor":0,
				"roughnessFactor":0.5
			}
		},
		{
			"doubleSided":true,
			"name":"Material.020",
			"normalTexture":{
				"extensions":{
					"KHR_texture_transform":{
						"offset":[
							-3.0049998760223344,
							0.7500001800909218
						],
						"rotation":1.5707963705062866,
						"scale":[
							9.999995231628418,
							4.119999885559082
						]
					}
				},
				"index":50
			},
			"pbrMetallicRoughness":{
				"baseColorTexture":{
					"extensions":{
						"KHR_texture_transform":{
							"offset":[
								-3.0049998760223344,
								0.7500001800909218
							],
							"rotation":1.5707963705062866,
							"scale":[
								9.999995231628418,
								4.119999885559082
							]
						}
					},
					"index":51
				},
				"metallicRoughnessTexture":{
					"extensions":{
						"KHR_texture_transform":{
							"offset":[
								-3.0049998760223344,
								0.7500001800909218
							],
							"rotation":1.5707963705062866,
							"scale":[
								9.999995231628418,
								4.119999885559082
							]
						}
					},
					"index":52
				}
			}
		},
		{
			"doubleSided":true,
			"name":"Material.021",
			"normalTexture":{
				"index":53
			},
			"pbrMetallicRoughness":{
				"baseColorTexture":{
					"index":54
				},
				"metallicFactor":0,
				"roughnessFactor":0.5
			}
		},
		{
			"doubleSided":true,
			"name":"Material.022",
			"normalTexture":{
				"extensions":{
					"KHR_texture_transform":{
						"offset":[
							-3.0049998760223344,
							0.7500001800909218
						],
						"rotation":1.5707963705062866,
						"scale":[
							9.999995231628418,
							4.119999885559082
						]
					}
				},
				"index":55
			},
			"pbrMetallicRoughness":{
				"baseColorTexture":{
					"extensions":{
						"KHR_texture_transform":{
							"offset":[
								-3.0049998760223344,
								0.7500001800909218
							],
							"rotation":1.5707963705062866,
							"scale":[
								9.999995231628418,
								4.119999885559082
							]
						}
					},
					"index":56
				},
				"metallicRoughnessTexture":{
					"extensions":{
						"KHR_texture_transform":{
							"offset":[
								-3.0049998760223344,
								0.7500001800909218
							],
							"rotation":1.5707963705062866,
							"scale":[
								9.999995231628418,
								4.119999885559082
							]
						}
					},
					"index":57
				}
			}
		},
		{
			"doubleSided":true,
			"name":"Material.023",
			"normalTexture":{
				"index":58
			},
			"pbrMetallicRoughness":{
				"baseColorTexture":{
					"index":59
				},
				"metallicFactor":0,
				"roughnessFactor":0.5
			}
		},
		{
			"doubleSided":true,
			"name":"Material.024",
			"normalTexture":{
				"extensions":{
					"KHR_texture_transform":{
						"offset":[
							-3.0049998760223344,
							0.7500001800909218
						],
						"rotation":1.5707963705062866,
						"scale":[
							9.999995231628418,
							4.119999885559082
						]
					}
				},
				"index":60
			},
			"pbrMetallicRoughness":{
				"baseColorTexture":{
					"extensions":{
						"KHR_texture_transform":{
							"offset":[
								-3.0049998760223344,
								0.7500001800909218
							],
							"rotation":1.5707963705062866,
							"scale":[
								9.999995231628418,
								4.119999885559082
							]
						}
					},
					"index":61
				},
				"metallicRoughnessTexture":{
					"extensions":{
						"KHR_texture_transform":{
							"offset":[
								-3.0049998760223344,
								0.7500001800909218
							],
							"rotation":1.5707963705062866,
							"scale":[
								9.999995231628418,
								4.119999885559082
							]
						}
					},
					"index":62
				}
			}
		},
		{
			"doubleSided":true,
			"name":"Material.025",
			"normalTexture":{
				"index":63
			},
			"pbrMetallicRoughness":{
				"baseColorTexture":{
					"index":64
				},
				"metallicFactor":0,
				"roughnessFactor":0.5
			}
		},
		{
			"doubleSided":true,
			"name":"Material.026",
			"normalTexture":{
				"extensions":{
					"KHR_texture_transform":{
						"offset":[
							-3.0049998760223344,
							0.7500001800909218
						],
						"rotation":1.5707963705062866,
						"scale":[
							9.999995231628418,
							4.119999885559082
						]
					}
				},
				"index":65
			},
			"pbrMetallicRoughness":{
				"baseColorTexture":{
					"extensions":{
						"KHR_texture_transform":{
							"offset":[
								-3.0049998760223344,
								0.7500001800909218
							],
							"rotation":1.5707963705062866,
							"scale":[
								9.999995231628418,
								4.119999885559082
							]
						}
					},
					"index":66
				},
				"metallicRoughnessTexture":{
					"extensions":{
						"KHR_texture_transform":{
							"offset":[
								-3.0049998760223344,
								0.7500001800909218
							],
							"rotation":1.5707963705062866,
							"scale":[
								9.999995231628418,
								4.119999885559082
							]
						}
					},
					"index":67
				}
			}
		},
		{
			"doubleSided":true,
			"name":"Material.027",
			"normalTexture":{
				"index":68
			},
			"pbrMetallicRoughness":{
				"baseColorTexture":{
					"index":69
				},
				"metallicFactor":0,
				"roughnessFactor":0.5
			}
		},
		{
			"doubleSided":true,
			"name":"Material.028",
			"normalTexture":{
				"extensions":{
					"KHR_texture_transform":{
						"offset":[
							-3.0049998760223344,
							0.7500001800909218
						],
						"rotation":1.5707963705062866,
						"scale":[
							9.999995231628418,
							4.119999885559082
						]
					}
				},
				"index":70
			},
			"pbrMetallicRoughness":{
				"baseColorTexture":{
					"extensions":{
						"KHR_texture_transform":{
							"offset":[
								-3.0049998760223344,
								0.7500001800909218
							],
							"rotation":1.5707963705062866,
							"scale":[
								9.999995231628418,
								4.119999885559082
							]
						}
					},
					"index":71
				},
				"metallicRoughnessTexture":{
					"extensions":{
						"KHR_texture_transform":{
							"offset":[
								-3.0049998760223344,
								0.7500001800909218
							],
							"rotation":1.5707963705062866,
							"scale":[
								9.999995231628418,
								4.119999885559082
							]
						}
					},
					"index":72
				}
			}
		},
		{
			"doubleSided":true,
			"name":"Material.029",
			"normalTexture":{
				"index":73
			},
			"pbrMetallicRoughness":{
				"baseColorTexture":{
					"index":74
				},
				"metallicFactor":0,
				"roughnessFactor":0.5
			}
		},
		{
			"doubleSided":true,
			"name":"Material.030",
			"normalTexture":{
				"extensions":{
					"KHR_texture_transform":{
						"offset":[
							-3.0049998760223344,
							0.7500001800909218
						],
						"rotation":1.5707963705062866,
						"scale":[
							9.999995231628418,
							4.119999885559082
						]
					}
				},
				"index":75
			},
			"pbrMetallicRoughness":{
				"baseColorTexture":{
					"extensions":{
						"KHR_texture_transform":{
							"offset":[
								-3.0049998760223344,
								0.7500001800909218
							],
							"rotation":1.5707963705062866,
							"scale":[
								9.999995231628418,
								4.119999885559082
							]
						}
					},
					"index":76
				},
				"metallicRoughnessTexture":{
					"extensions":{
						"KHR_texture_transform":{
							"offset":[
								-3.0049998760223344,
								0.7500001800909218
							],
							"rotation":1.5707963705062866,
							"scale":[
								9.999995231628418,
								4.119999885559082
							]
						}
					},
					"index":77
				}
			}
		},
		{
			"doubleSided":true,
			"name":"Material.031",
			"normalTexture":{
				"index":78
			},
			"pbrMetallicRoughness":{
				"baseColorTexture":{
					"index":79
				},
				"metallicFactor":0,
				"roughnessFactor":0.5
			}
		}
	],
	"meshes":[
		{
			"name":"Cube.007",
			"primitives":[
				{
					"attributes":{
						"POSITION":0,
						"NORMAL":1,
						"TEXCOORD_0":2,
						"TANGENT":3
					},
					"indices":4,
					"material":0
				},
				{
					"attributes":{
						"POSITION":5,
						"NORMAL":6,
						"TEXCOORD_0":7,
						"TANGENT":8
					},
					"indices":9,
					"material":1
				}
			]
		},
		{
			"name":"Cube.001",
			"primitives":[
				{
					"attributes":{
						"POSITION":10,
						"NORMAL":11,
						"TEXCOORD_0":12,
						"TANGENT":13
					},
					"indices":4,
					"material":2
				},
				{
					"attributes":{
						"POSITION":14,
						"NORMAL":15,
						"TEXCOORD_0":16,
						"TANGENT":17
					},
					"indices":9,
					"material":3
				}
			]
		},
		{
			"name":"Cube.002",
			"primitives":[
				{
					"attributes":{
						"POSITION":18,
						"NORMAL":19,
						"TEXCOORD_0":20,
						"TANGENT":21
					},
					"indices":4,
					"material":4
				},
				{
					"attributes":{
						"POSITION":22,
						"NORMAL":23,
						"TEXCOORD_0":24,
						"TANGENT":25
					},
					"indices":9,
					"material":5
				}
			]
		},
		{
			"name":"Cube.003",
			"primitives":[
				{
					"attributes":{
						"POSITION":26,
						"NORMAL":27,
						"TEXCOORD_0":28,
						"TANGENT":29
					},
					"indices":4,
					"material":6
				},
				{
					"attributes":{
						"POSITION":30,
						"NORMAL":31,
						"TEXCOORD_0":32,
						"TANGENT":33
					},
					"indices":9,
					"material":7
				}
			]
		},
		{
			"name":"Cube.004",
			"primitives":[
				{
					"attributes":{
						"POSITION":34,
						"NORMAL":35,
						"TEXCOORD_0":36,
						"TANGENT":37
					},
					"indices":4,
					"material":8
				},
				{
					"attributes":{
						"POSITION":38,
						"NORMAL":39,
						"TEXCOORD_0":40,
						"TANGENT":41
					},
					"indices":9,
					"material":9
				}
			]
		},
		{
			"name":"Cube.005",
			"primitives":[
				{
					"attributes":{
						"POSITION":42,
						"NORMAL":43,
						"TEXCOORD_0":44,
						"TANGENT":45
					},
					"indices":4,
					"material":10
				},
				{
					"attributes":{
						"POSITION":46,
						"NORMAL":47,
						"TEXCOORD_0":48,
						"TANGENT":49
					},
					"indices":9,
					"material":11
				}
			]
		},
		{
			"name":"Cube.006",
			"primitives":[
				{
					"attributes":{
						"POSITION":50,
						"NORMAL":51,
						"TEXCOORD_0":52,
						"TANGENT":53
					},
					"indices":4,
					"material":12
				},
				{
					"attributes":{
						"POSITION":54,
						"NORMAL":55,
						"TEXCOORD_0":56,
						"TANGENT":57
					},
					"indices":9,
					"material":13
				}
			]
		},
		{
			"name":"Cube.008",
			"primitives":[
				{
					"attributes":{
						"POSITION":58,
						"NORMAL":59,
						"TEXCOORD_0":60,
						"TANGENT":61
					},
					"indices":4,
					"material":14
				},
				{
					"attributes":{
						"POSITION":62,
						"NORMAL":63,
						"TEXCOORD_0":64,
						"TANGENT":65
					},
					"indices":9,
					"material":15
				}
			]
		},
		{
			"name":"Cube.009",
			"primitives":[
				{
					"attributes":{
						"POSITION":66,
						"NORMAL":67,
						"TEXCOORD_0":68,
						"TANGENT":69
					},
					"indices":4,
					"material":16
				},
				{
					"attributes":{
						"POSITION":70,
						"NORMAL":71,
						"TEXCOORD_0":72,
						"TANGENT":73
					},
					"indices":9,
					"material":17
				}
			]
		},
		{
			"name":"Cube.010",
			"primitives":[
				{
					"attributes":{
						"POSITION":74,
						"NORMAL":75,
						"TEXCOORD_0":76,
						"TANGENT":77
					},
					"indices":4,
					"material":18
				},
				{
					"attributes":{
						"POSITION":78,
						"NORMAL":79,
						"TEXCOORD_0":80,
						"TANGENT":81
					},
					"indices":9,
					"material":19
				}
			]
		},
		{
			"name":"Cube.011",
			"primitives":[
				{
					"attributes":{
						"POSITION":82,
						"NORMAL":83,
						"TEXCOORD_0":84,
						"TANGENT":85
					},
					"indices":4,
					"material":20
				},
				{
					"attributes":{
						"POSITION":86,
						"NORMAL":87,
						"TEXCOORD_0":88,
						"TANGENT":89
					},
					"indices":9,
					"material":21
				}
			]
		},
		{
			"name":"Cube.012",
			"primitives":[
				{
					"attributes":{
						"POSITION":90,
						"NORMAL":91,
						"TEXCOORD_0":92,
						"TANGENT":93
					},
					"indices":4,
					"material":22
				},
				{
					"attributes":{
						"POSITION":94,
						"NORMAL":95,
						"TEXCOORD_0":96,
						"TANGENT":97
					},
					"indices":9,
					"material":23
				}
			]
		},
		{
			"name":"Cube.013",
			"primitives":[
				{
					"attributes":{
						"POSITION":98,
						"NORMAL":99,
						"TEXCOORD_0":100,
						"TANGENT":101
					},
					"indices":4,
					"material":24
				},
				{
					"attributes":{
						"POSITION":102,
						"NORMAL":103,
						"TEXCOORD_0":104,
						"TANGENT":105
					},
					"indices":9,
					"material":25
				}
			]
		},
		{
			"name":"Cube.014",
			"primitives":[
				{
					"attributes":{
						"POSITION":106,
						"NORMAL":107,
						"TEXCOORD_0":108,
						"TANGENT":109
					},
					"indices":4,
					"material":26
				},
				{
					"attributes":{
						"POSITION":110,
						"NORMAL":111,
						"TEXCOORD_0":112,
						"TANGENT":113
					},
					"indices":9,
					"material":27
				}
			]
		},
		{
			"name":"Cube.015",
			"primitives":[
				{
					"attributes":{
						"POSITION":114,
						"NORMAL":115,
						"TEXCOORD_0":116,
						"TANGENT":117
					},
					"indices":4,
					"material":28
				},
				{
					"attributes":{
						"POSITION":118,
						"NORMAL":119,
						"TEXCOORD_0":120,
						"TANGENT":121
					},
					"indices":9,
					"material":29
				}
			]
		},
		{
			"name":"Cube.016",
			"primitives":[
				{
					"attributes":{
						"POSITION":122,
						"NORMAL":123,
						"TEXCOORD_0":124,
						"TANGENT":125
					},
					"indices":4,
					"material":30
				},
				{
					"attributes":{
						"POSITION":126,
						"NORMAL":127,
						"TEXCOORD_0":128,
						"TANGENT":129
					},
					"indices":9,
					"material":31
				}
			]
		}
	],
	"textures":[
		{
			"sampler":0,
			"source":0
		},
		{
			"sampler":0,
			"source":1
		},
		{
			"sampler":0,
			"source":2
		},
		{
			"sampler":0,
			"source":3
		},
		{
			"sampler":0,
			"source":4
		},
		{
			"sampler":0,
			"source":0
		},
		{
			"sampler":0,
			"source":1
		},
		{
			"sampler":0,
			"source":2
		},
		{
			"sampler":0,
			"source":3
		},
		{
			"sampler":0,
			"source":4
		},
		{
			"sampler":0,
			"source":0
		},
		{
			"sampler":0,
			"source":1
		},
		{
			"sampler":0,
			"source":2
		},
		{
			"sampler":0,
			"source":3
		},
		{
			"sampler":0,
			"source":4
		},
		{
			"sampler":0,
			"source":0
		},
		{
			"sampler":0,
			"source":1
		},
		{
			"sampler":0,
			"source":2
		},
		{
			"sampler":0,
			"source":3
		},
		{
			"sampler":0,
			"source":4
		},
		{
			"sampler":0,
			"source":0
		},
		{
			"sampler":0,
			"source":1
		},
		{
			"sampler":0,
			"source":2
		},
		{
			"sampler":0,
			"source":3
		},
		{
			"sampler":0,
			"source":4
		},
		{
			"sampler":0,
			"source":0
		},
		{
			"sampler":0,
			"source":1
		},
		{
			"sampler":0,
			"source":2
		},
		{
			"sampler":0,
			"source":3
		},
		{
			"sampler":0,
			"source":4
		},
		{
			"sampler":0,
			"source":0
		},
		{
			"sampler":0,
			"source":1
		},
		{
			"sampler":0,
			"source":2
		},
		{
			"sampler":0,
			"source":3
		},
		{
			"sampler":0,
			"source":4
		},
		{
			"sampler":0,
			"source":0
		},
		{
			"sampler":0,
			"source":1
		},
		{
			"sampler":0,
			"source":2
		},
		{
			"sampler":0,
			"source":3
		},
		{
			"sampler":0,
			"source":4
		},
		{
			"sampler":0,
			"source":0
		},
		{
			"sampler":0,
			"source":1
		},
		{
			"sampler":0,
			"source":2
		},
		{
			"sampler":0,
			"source":3
		},
		{
			"sampler":0,
			"source":4
		},
		{
			"sampler":0,
			"source":0
		},
		{
			"sampler":0,
			"source":1
		},
		{
			"sampler":0,
			"source":2
		},
		{
			"sampler":0,
			"source":3
		},
		{
			"sampler":0,
			"source":4
		},
		{
			"sampler":0,
			"source":0
		},
		{
			"sampler":0,
			"source":1
		},
		{
			"sampler":0,
			"source":2
		},
		{
			"sampler":0,
			"source":3
		},
		{
			"sampler":0,
			"source":4
		},
		{
			"sampler":0,
			"source":0
		},
		{
			"sampler":0,
			"source":1
		},
		{
			"sampler":0,
			"source":2
		},
		{
			"sampler":0,
			"source":3
		},
		{
			"sampler":0,
			"source":4
		},
		{
			"sampler":0,
			"source":0
		},
		{
			"sampler":0,
			"source":1
		},
		{
			"sampler":0,
			"source":2
		},
		{
			"sampler":0,
			"source":3
		},
		{
			"sampler":0,
			"source":4
		},
		{
			"sampler":0,
			"source":0
		},
		{
			"sampler":0,
			"source":1
		},
		{
			"sampler":0,
			"source":2
		},
		{
			"sampler":0,
			"source":3
		},
		{
			"sampler":0,
			"source":4
		},
		{
			"sampler":0,
			"source":0
		},
		{
			"sampler":0,
			"source":1
		},
		{
			"sampler":0,
			"source":2
		},
		{
			"sampler":0,
			"source":3
		},
		{
			"sampler":0,
			"source":4
		},
		{
			"sampler":0,
			"source":0
		},
		{
			"sampler":0,
			"source":1
		},
		{
			"sampler":0,
			"source":2
		},
		{
			"sampler":0,
			"source":3
		},
		{
			"sampler":0,
			"source":4
		}
	],
	"images":[
		{
			"mimeType":"image/png",
			"name":"others_0019_normal_opengl_1k",
			"uri":"src/assets/textures/EOSD_s4/others_0019_normal_opengl_1k.png"
		},
		{
			"mimeType":"image/jpeg",
			"name":"others_0019_color_1k",
			"uri":"src/assets/textures/EOSD_s4/others_0019_color_1k.jpg"
		},
		{
			"mimeType":"image/png",
			"name":"others_0019_metallic_1k.jpg-others_0019_roughness_1k.jpg",
			"uri":"src/assets/textures/EOSD_s4/others_0019_metallic_1k_jpg-others_0019_roughness_1k_jpg.png"
		},
		{
			"mimeType":"image/png",
			"name":"wood_table_worn_nor_gl_4k",
			"uri":"src/assets/textures/EOSD_s4/wood_table_worn_nor_gl_4k.png"
		},
		{
			"mimeType":"image/png",
			"name":"wood_table_worn_diff_4k",
			"uri":"src/assets/textures/EOSD_s4/wood_table_worn_diff_4k.png"
		}
	],
	"accessors":[
		{
			"bufferView":0,
			"componentType":5126,
			"count":8,
			"max":[
				1,
				1,
				1
			],
			"min":[
				-1,
				-1,
				-1
			],
			"type":"VEC3"
		},
		{
			"bufferView":1,
			"componentType":5126,
			"count":8,
			"type":"VEC3"
		},
		{
			"bufferView":2,
			"componentType":5126,
			"count":8,
			"type":"VEC2"
		},
		{
			"bufferView":3,
			"componentType":5126,
			"count":8,
			"type":"VEC4"
		},
		{
			"bufferView":4,
			"componentType":5123,
			"count":12,
			"type":"SCALAR"
		},
		{
			"bufferView":5,
			"componentType":5126,
			"count":16,
			"max":[
				1,
				1,
				1
			],
			"min":[
				-1,
				-1,
				-1
			],
			"type":"VEC3"
		},
		{
			"bufferView":6,
			"componentType":5126,
			"count":16,
			"type":"VEC3"
		},
		{
			"bufferView":7,
			"componentType":5126,
			"count":16,
			"type":"VEC2"
		},
		{
			"bufferView":8,
			"componentType":5126,
			"count":16,
			"type":"VEC4"
		},
		{
			"bufferView":9,
			"componentType":5123,
			"count":24,
			"type":"SCALAR"
		},
		{
			"bufferView":10,
			"componentType":5126,
			"count":8,
			"max":[
				1,
				1,
				1
			],
			"min":[
				-1,
				-1,
				-1
			],
			"type":"VEC3"
		},
		{
			"bufferView":11,
			"componentType":5126,
			"count":8,
			"type":"VEC3"
		},
		{
			"bufferView":12,
			"componentType":5126,
			"count":8,
			"type":"VEC2"
		},
		{
			"bufferView":13,
			"componentType":5126,
			"count":8,
			"type":"VEC4"
		},
		{
			"bufferView":14,
			"componentType":5126,
			"count":16,
			"max":[
				1,
				1,
				1
			],
			"min":[
				-1,
				-1,
				-1
			],
			"type":"VEC3"
		},
		{
			"bufferView":15,
			"componentType":5126,
			"count":16,
			"type":"VEC3"
		},
		{
			"bufferView":16,
			"componentType":5126,
			"count":16,
			"type":"VEC2"
		},
		{
			"bufferView":17,
			"componentType":5126,
			"count":16,
			"type":"VEC4"
		},
		{
			"bufferView":18,
			"componentType":5126,
			"count":8,
			"max":[
				1,
				1,
				1
			],
			"min":[
				-1,
				-1,
				-1
			],
			"type":"VEC3"
		},
		{
			"bufferView":19,
			"componentType":5126,
			"count":8,
			"type":"VEC3"
		},
		{
			"bufferView":20,
			"componentType":5126,
			"count":8,
			"type":"VEC2"
		},
		{
			"bufferView":21,
			"componentType":5126,
			"count":8,
			"type":"VEC4"
		},
		{
			"bufferView":22,
			"componentType":5126,
			"count":16,
			"max":[
				1,
				1,
				1
			],
			"min":[
				-1,
				-1,
				-1
			],
			"type":"VEC3"
		},
		{
			"bufferView":23,
			"componentType":5126,
			"count":16,
			"type":"VEC3"
		},
		{
			"bufferView":24,
			"componentType":5126,
			"count":16,
			"type":"VEC2"
		},
		{
			"bufferView":25,
			"componentType":5126,
			"count":16,
			"type":"VEC4"
		},
		{
			"bufferView":26,
			"componentType":5126,
			"count":8,
			"max":[
				1,
				1,
				1
			],
			"min":[
				-1,
				-1,
				-1
			],
			"type":"VEC3"
		},
		{
			"bufferView":27,
			"componentType":5126,
			"count":8,
			"type":"VEC3"
		},
		{
			"bufferView":28,
			"componentType":5126,
			"count":8,
			"type":"VEC2"
		},
		{
			"bufferView":29,
			"componentType":5126,
			"count":8,
			"type":"VEC4"
		},
		{
			"bufferView":30,
			"componentType":5126,
			"count":16,
			"max":[
				1,
				1,
				1
			],
			"min":[
				-1,
				-1,
				-1
			],
			"type":"VEC3"
		},
		{
			"bufferView":31,
			"componentType":5126,
			"count":16,
			"type":"VEC3"
		},
		{
			"bufferView":32,
			"componentType":5126,
			"count":16,
			"type":"VEC2"
		},
		{
			"bufferView":33,
			"componentType":5126,
			"count":16,
			"type":"VEC4"
		},
		{
			"bufferView":34,
			"componentType":5126,
			"count":8,
			"max":[
				1,
				1,
				1
			],
			"min":[
				-1,
				-1,
				-1
			],
			"type":"VEC3"
		},
		{
			"bufferView":35,
			"componentType":5126,
			"count":8,
			"type":"VEC3"
		},
		{
			"bufferView":36,
			"componentType":5126,
			"count":8,
			"type":"VEC2"
		},
		{
			"bufferView":37,
			"componentType":5126,
			"count":8,
			"type":"VEC4"
		},
		{
			"bufferView":38,
			"componentType":5126,
			"count":16,
			"max":[
				1,
				1,
				1
			],
			"min":[
				-1,
				-1,
				-1
			],
			"type":"VEC3"
		},
		{
			"bufferView":39,
			"componentType":5126,
			"count":16,
			"type":"VEC3"
		},
		{
			"bufferView":40,
			"componentType":5126,
			"count":16,
			"type":"VEC2"
		},
		{
			"bufferView":41,
			"componentType":5126,
			"count":16,
			"type":"VEC4"
		},
		{
			"bufferView":42,
			"componentType":5126,
			"count":8,
			"max":[
				1,
				1,
				1
			],
			"min":[
				-1,
				-1,
				-1
			],
			"type":"VEC3"
		},
		{
			"bufferView":43,
			"componentType":5126,
			"count":8,
			"type":"VEC3"
		},
		{
			"bufferView":44,
			"componentType":5126,
			"count":8,
			"type":"VEC2"
		},
		{
			"bufferView":45,
			"componentType":5126,
			"count":8,
			"type":"VEC4"
		},
		{
			"bufferView":46,
			"componentType":5126,
			"count":16,
			"max":[
				1,
				1,
				1
			],
			"min":[
				-1,
				-1,
				-1
			],
			"type":"VEC3"
		},
		{
			"bufferView":47,
			"componentType":5126,
			"count":16,
			"type":"VEC3"
		},
		{
			"bufferView":48,
			"componentType":5126,
			"count":16,
			"type":"VEC2"
		},
		{
			"bufferView":49,
			"componentType":5126,
			"count":16,
			"type":"VEC4"
		},
		{
			"bufferView":50,
			"componentType":5126,
			"count":8,
			"max":[
				1,
				1,
				1
			],
			"min":[
				-1,
				-1,
				-1
			],
			"type":"VEC3"
		},
		{
			"bufferView":51,
			"componentType":5126,
			"count":8,
			"type":"VEC3"
		},
		{
			"bufferView":52,
			"componentType":5126,
			"count":8,
			"type":"VEC2"
		},
		{
			"bufferView":53,
			"componentType":5126,
			"count":8,
			"type":"VEC4"
		},
		{
			"bufferView":54,
			"componentType":5126,
			"count":16,
			"max":[
				1,
				1,
				1
			],
			"min":[
				-1,
				-1,
				-1
			],
			"type":"VEC3"
		},
		{
			"bufferView":55,
			"componentType":5126,
			"count":16,
			"type":"VEC3"
		},
		{
			"bufferView":56,
			"componentType":5126,
			"count":16,
			"type":"VEC2"
		},
		{
			"bufferView":57,
			"componentType":5126,
			"count":16,
			"type":"VEC4"
		},
		{
			"bufferView":58,
			"componentType":5126,
			"count":8,
			"max":[
				1,
				1,
				1
			],
			"min":[
				-1,
				-1,
				-1
			],
			"type":"VEC3"
		},
		{
			"bufferView":59,
			"componentType":5126,
			"count":8,
			"type":"VEC3"
		},
		{
			"bufferView":60,
			"componentType":5126,
			"count":8,
			"type":"VEC2"
		},
		{
			"bufferView":61,
			"componentType":5126,
			"count":8,
			"type":"VEC4"
		},
		{
			"bufferView":62,
			"componentType":5126,
			"count":16,
			"max":[
				1,
				1,
				1
			],
			"min":[
				-1,
				-1,
				-1
			],
			"type":"VEC3"
		},
		{
			"bufferView":63,
			"componentType":5126,
			"count":16,
			"type":"VEC3"
		},
		{
			"bufferView":64,
			"componentType":5126,
			"count":16,
			"type":"VEC2"
		},
		{
			"bufferView":65,
			"componentType":5126,
			"count":16,
			"type":"VEC4"
		},
		{
			"bufferView":66,
			"componentType":5126,
			"count":8,
			"max":[
				1,
				1,
				1
			],
			"min":[
				-1,
				-1,
				-1
			],
			"type":"VEC3"
		},
		{
			"bufferView":67,
			"componentType":5126,
			"count":8,
			"type":"VEC3"
		},
		{
			"bufferView":68,
			"componentType":5126,
			"count":8,
			"type":"VEC2"
		},
		{
			"bufferView":69,
			"componentType":5126,
			"count":8,
			"type":"VEC4"
		},
		{
			"bufferView":70,
			"componentType":5126,
			"count":16,
			"max":[
				1,
				1,
				1
			],
			"min":[
				-1,
				-1,
				-1
			],
			"type":"VEC3"
		},
		{
			"bufferView":71,
			"componentType":5126,
			"count":16,
			"type":"VEC3"
		},
		{
			"bufferView":72,
			"componentType":5126,
			"count":16,
			"type":"VEC2"
		},
		{
			"bufferView":73,
			"componentType":5126,
			"count":16,
			"type":"VEC4"
		},
		{
			"bufferView":74,
			"componentType":5126,
			"count":8,
			"max":[
				1,
				1,
				1
			],
			"min":[
				-1,
				-1,
				-1
			],
			"type":"VEC3"
		},
		{
			"bufferView":75,
			"componentType":5126,
			"count":8,
			"type":"VEC3"
		},
		{
			"bufferView":76,
			"componentType":5126,
			"count":8,
			"type":"VEC2"
		},
		{
			"bufferView":77,
			"componentType":5126,
			"count":8,
			"type":"VEC4"
		},
		{
			"bufferView":78,
			"componentType":5126,
			"count":16,
			"max":[
				1,
				1,
				1
			],
			"min":[
				-1,
				-1,
				-1
			],
			"type":"VEC3"
		},
		{
			"bufferView":79,
			"componentType":5126,
			"count":16,
			"type":"VEC3"
		},
		{
			"bufferView":80,
			"componentType":5126,
			"count":16,
			"type":"VEC2"
		},
		{
			"bufferView":81,
			"componentType":5126,
			"count":16,
			"type":"VEC4"
		},
		{
			"bufferView":82,
			"componentType":5126,
			"count":8,
			"max":[
				1,
				1,
				1
			],
			"min":[
				-1,
				-1,
				-1
			],
			"type":"VEC3"
		},
		{
			"bufferView":83,
			"componentType":5126,
			"count":8,
			"type":"VEC3"
		},
		{
			"bufferView":84,
			"componentType":5126,
			"count":8,
			"type":"VEC2"
		},
		{
			"bufferView":85,
			"componentType":5126,
			"count":8,
			"type":"VEC4"
		},
		{
			"bufferView":86,
			"componentType":5126,
			"count":16,
			"max":[
				1,
				1,
				1
			],
			"min":[
				-1,
				-1,
				-1
			],
			"type":"VEC3"
		},
		{
			"bufferView":87,
			"componentType":5126,
			"count":16,
			"type":"VEC3"
		},
		{
			"bufferView":88,
			"componentType":5126,
			"count":16,
			"type":"VEC2"
		},
		{
			"bufferView":89,
			"componentType":5126,
			"count":16,
			"type":"VEC4"
		},
		{
			"bufferView":90,
			"componentType":5126,
			"count":8,
			"max":[
				1,
				1,
				1
			],
			"min":[
				-1,
				-1,
				-1
			],
			"type":"VEC3"
		},
		{
			"bufferView":91,
			"componentType":5126,
			"count":8,
			"type":"VEC3"
		},
		{
			"bufferView":92,
			"componentType":5126,
			"count":8,
			"type":"VEC2"
		},
		{
			"bufferView":93,
			"componentType":5126,
			"count":8,
			"type":"VEC4"
		},
		{
			"bufferView":94,
			"componentType":5126,
			"count":16,
			"max":[
				1,
				1,
				1
			],
			"min":[
				-1,
				-1,
				-1
			],
			"type":"VEC3"
		},
		{
			"bufferView":95,
			"componentType":5126,
			"count":16,
			"type":"VEC3"
		},
		{
			"bufferView":96,
			"componentType":5126,
			"count":16,
			"type":"VEC2"
		},
		{
			"bufferView":97,
			"componentType":5126,
			"count":16,
			"type":"VEC4"
		},
		{
			"bufferView":98,
			"componentType":5126,
			"count":8,
			"max":[
				1,
				1,
				1
			],
			"min":[
				-1,
				-1,
				-1
			],
			"type":"VEC3"
		},
		{
			"bufferView":99,
			"componentType":5126,
			"count":8,
			"type":"VEC3"
		},
		{
			"bufferView":100,
			"componentType":5126,
			"count":8,
			"type":"VEC2"
		},
		{
			"bufferView":101,
			"componentType":5126,
			"count":8,
			"type":"VEC4"
		},
		{
			"bufferView":102,
			"componentType":5126,
			"count":16,
			"max":[
				1,
				1,
				1
			],
			"min":[
				-1,
				-1,
				-1
			],
			"type":"VEC3"
		},
		{
			"bufferView":103,
			"componentType":5126,
			"count":16,
			"type":"VEC3"
		},
		{
			"bufferView":104,
			"componentType":5126,
			"count":16,
			"type":"VEC2"
		},
		{
			"bufferView":105,
			"componentType":5126,
			"count":16,
			"type":"VEC4"
		},
		{
			"bufferView":106,
			"componentType":5126,
			"count":8,
			"max":[
				1,
				1,
				1
			],
			"min":[
				-1,
				-1,
				-1
			],
			"type":"VEC3"
		},
		{
			"bufferView":107,
			"componentType":5126,
			"count":8,
			"type":"VEC3"
		},
		{
			"bufferView":108,
			"componentType":5126,
			"count":8,
			"type":"VEC2"
		},
		{
			"bufferView":109,
			"componentType":5126,
			"count":8,
			"type":"VEC4"
		},
		{
			"bufferView":110,
			"componentType":5126,
			"count":16,
			"max":[
				1,
				1,
				1
			],
			"min":[
				-1,
				-1,
				-1
			],
			"type":"VEC3"
		},
		{
			"bufferView":111,
			"componentType":5126,
			"count":16,
			"type":"VEC3"
		},
		{
			"bufferView":112,
			"componentType":5126,
			"count":16,
			"type":"VEC2"
		},
		{
			"bufferView":113,
			"componentType":5126,
			"count":16,
			"type":"VEC4"
		},
		{
			"bufferView":114,
			"componentType":5126,
			"count":8,
			"max":[
				1,
				1,
				1
			],
			"min":[
				-1,
				-1,
				-1
			],
			"type":"VEC3"
		},
		{
			"bufferView":115,
			"componentType":5126,
			"count":8,
			"type":"VEC3"
		},
		{
			"bufferView":116,
			"componentType":5126,
			"count":8,
			"type":"VEC2"
		},
		{
			"bufferView":117,
			"componentType":5126,
			"count":8,
			"type":"VEC4"
		},
		{
			"bufferView":118,
			"componentType":5126,
			"count":16,
			"max":[
				1,
				1,
				1
			],
			"min":[
				-1,
				-1,
				-1
			],
			"type":"VEC3"
		},
		{
			"bufferView":119,
			"componentType":5126,
			"count":16,
			"type":"VEC3"
		},
		{
			"bufferView":120,
			"componentType":5126,
			"count":16,
			"type":"VEC2"
		},
		{
			"bufferView":121,
			"componentType":5126,
			"count":16,
			"type":"VEC4"
		},
		{
			"bufferView":122,
			"componentType":5126,
			"count":8,
			"max":[
				1,
				1,
				1
			],
			"min":[
				-1,
				-1,
				-1
			],
			"type":"VEC3"
		},
		{
			"bufferView":123,
			"componentType":5126,
			"count":8,
			"type":"VEC3"
		},
		{
			"bufferView":124,
			"componentType":5126,
			"count":8,
			"type":"VEC2"
		},
		{
			"bufferView":125,
			"componentType":5126,
			"count":8,
			"type":"VEC4"
		},
		{
			"bufferView":126,
			"componentType":5126,
			"count":16,
			"max":[
				1,
				1,
				1
			],
			"min":[
				-1,
				-1,
				-1
			],
			"type":"VEC3"
		},
		{
			"bufferView":127,
			"componentType":5126,
			"count":16,
			"type":"VEC3"
		},
		{
			"bufferView":128,
			"componentType":5126,
			"count":16,
			"type":"VEC2"
		},
		{
			"bufferView":129,
			"componentType":5126,
			"count":16,
			"type":"VEC4"
		}
	],
	"bufferViews":[
		{
			"buffer":0,
			"byteLength":96,
			"byteOffset":0,
			"target":34962
		},
		{
			"buffer":0,
			"byteLength":96,
			"byteOffset":96,
			"target":34962
		},
		{
			"buffer":0,
			"byteLength":64,
			"byteOffset":192,
			"target":34962
		},
		{
			"buffer":0,
			"byteLength":128,
			"byteOffset":256,
			"target":34962
		},
		{
			"buffer":0,
			"byteLength":24,
			"byteOffset":384,
			"target":34963
		},
		{
			"buffer":0,
			"byteLength":192,
			"byteOffset":408,
			"target":34962
		},
		{
			"buffer":0,
			"byteLength":192,
			"byteOffset":600,
			"target":34962
		},
		{
			"buffer":0,
			"byteLength":128,
			"byteOffset":792,
			"target":34962
		},
		{
			"buffer":0,
			"byteLength":256,
			"byteOffset":920,
			"target":34962
		},
		{
			"buffer":0,
			"byteLength":48,
			"byteOffset":1176,
			"target":34963
		},
		{
			"buffer":0,
			"byteLength":96,
			"byteOffset":1224,
			"target":34962
		},
		{
			"buffer":0,
			"byteLength":96,
			"byteOffset":1320,
			"target":34962
		},
		{
			"buffer":0,
			"byteLength":64,
			"byteOffset":1416,
			"target":34962
		},
		{
			"buffer":0,
			"byteLength":128,
			"byteOffset":1480,
			"target":34962
		},
		{
			"buffer":0,
			"byteLength":192,
			"byteOffset":1608,
			"target":34962
		},
		{
			"buffer":0,
			"byteLength":192,
			"byteOffset":1800,
			"target":34962
		},
		{
			"buffer":0,
			"byteLength":128,
			"byteOffset":1992,
			"target":34962
		},
		{
			"buffer":0,
			"byteLength":256,
			"byteOffset":2120,
			"target":34962
		},
		{
			"buffer":0,
			"byteLength":96,
			"byteOffset":2376,
			"target":34962
		},
		{
			"buffer":0,
			"byteLength":96,
			"byteOffset":2472,
			"target":34962
		},
		{
			"buffer":0,
			"byteLength":64,
			"byteOffset":2568,
			"target":34962
		},
		{
			"buffer":0,
			"byteLength":128,
			"byteOffset":2632,
			"target":34962
		},
		{
			"buffer":0,
			"byteLength":192,
			"byteOffset":2760,
			"target":34962
		},
		{
			"buffer":0,
			"byteLength":192,
			"byteOffset":2952,
			"target":34962
		},
		{
			"buffer":0,
			"byteLength":128,
			"byteOffset":3144,
			"target":34962
		},
		{
			"buffer":0,
			"byteLength":256,
			"byteOffset":3272,
			"target":34962
		},
		{
			"buffer":0,
			"byteLength":96,
			"byteOffset":3528,
			"target":34962
		},
		{
			"buffer":0,
			"byteLength":96,
			"byteOffset":3624,
			"target":34962
		},
		{
			"buffer":0,
			"byteLength":64,
			"byteOffset":3720,
			"target":34962
		},
		{
			"buffer":0,
			"byteLength":128,
			"byteOffset":3784,
			"target":34962
		},
		{
			"buffer":0,
			"byteLength":192,
			"byteOffset":3912,
			"target":34962
		},
		{
			"buffer":0,
			"byteLength":192,
			"byteOffset":4104,
			"target":34962
		},
		{
			"buffer":0,
			"byteLength":128,
			"byteOffset":4296,
			"target":34962
		},
		{
			"buffer":0,
			"byteLength":256,
			"byteOffset":4424,
			"target":34962
		},
		{
			"buffer":0,
			"byteLength":96,
			"byteOffset":4680,
			"target":34962
		},
		{
			"buffer":0,
			"byteLength":96,
			"byteOffset":4776,
			"target":34962
		},
		{
			"buffer":0,
			"byteLength":64,
			"byteOffset":4872,
			"target":34962
		},
		{
			"buffer":0,
			"byteLength":128,
			"byteOffset":4936,
			"target":34962
		},
		{
			"buffer":0,
			"byteLength":192,
			"byteOffset":5064,
			"target":34962
		},
		{
			"buffer":0,
			"byteLength":192,
			"byteOffset":5256,
			"target":34962
		},
		{
			"buffer":0,
			"byteLength":128,
			"byteOffset":5448,
			"target":34962
		},
		{
			"buffer":0,
			"byteLength":256,
			"byteOffset":5576,
			"target":34962
		},
		{
			"buffer":0,
			"byteLength":96,
			"byteOffset":5832,
			"target":34962
		},
		{
			"buffer":0,
			"byteLength":96,
			"byteOffset":5928,
			"target":34962
		},
		{
			"buffer":0,
			"byteLength":64,
			"byteOffset":6024,
			"target":34962
		},
		{
			"buffer":0,
			"byteLength":128,
			"byteOffset":6088,
			"target":34962
		},
		{
			"buffer":0,
			"byteLength":192,
			"byteOffset":6216,
			"target":34962
		},
		{
			"buffer":0,
			"byteLength":192,
			"byteOffset":6408,
			"target":34962
		},
		{
			"buffer":0,
			"byteLength":128,
			"byteOffset":6600,
			"target":34962
		},
		{
			"buffer":0,
			"byteLength":256,
			"byteOffset":6728,
			"target":34962
		},
		{
			"buffer":0,
			"byteLength":96,
			"byteOffset":6984,
			"target":34962
		},
		{
			"buffer":0,
			"byteLength":96,
			"byteOffset":7080,
			"target":34962
		},
		{
			"buffer":0,
			"byteLength":64,
			"byteOffset":7176,
			"target":34962
		},
		{
			"buffer":0,
			"byteLength":128,
			"byteOffset":7240,
			"target":34962
		},
		{
			"buffer":0,
			"byteLength":192,
			"byteOffset":7368,
			"target":34962
		},
		{
			"buffer":0,
			"byteLength":192,
			"byteOffset":7560,
			"target":34962
		},
		{
			"buffer":0,
			"byteLength":128,
			"byteOffset":7752,
			"target":34962
		},
		{
			"buffer":0,
			"byteLength":256,
			"byteOffset":7880,
			"target":34962
		},
		{
			"buffer":0,
			"byteLength":96,
			"byteOffset":8136,
			"target":34962
		},
		{
			"buffer":0,
			"byteLength":96,
			"byteOffset":8232,
			"target":34962
		},
		{
			"buffer":0,
			"byteLength":64,
			"byteOffset":8328,
			"target":34962
		},
		{
			"buffer":0,
			"byteLength":128,
			"byteOffset":8392,
			"target":34962
		},
		{
			"buffer":0,
			"byteLength":192,
			"byteOffset":8520,
			"target":34962
		},
		{
			"buffer":0,
			"byteLength":192,
			"byteOffset":8712,
			"target":34962
		},
		{
			"buffer":0,
			"byteLength":128,
			"byteOffset":8904,
			"target":34962
		},
		{
			"buffer":0,
			"byteLength":256,
			"byteOffset":9032,
			"target":34962
		},
		{
			"buffer":0,
			"byteLength":96,
			"byteOffset":9288,
			"target":34962
		},
		{
			"buffer":0,
			"byteLength":96,
			"byteOffset":9384,
			"target":34962
		},
		{
			"buffer":0,
			"byteLength":64,
			"byteOffset":9480,
			"target":34962
		},
		{
			"buffer":0,
			"byteLength":128,
			"byteOffset":9544,
			"target":34962
		},
		{
			"buffer":0,
			"byteLength":192,
			"byteOffset":9672,
			"target":34962
		},
		{
			"buffer":0,
			"byteLength":192,
			"byteOffset":9864,
			"target":34962
		},
		{
			"buffer":0,
			"byteLength":128,
			"byteOffset":10056,
			"target":34962
		},
		{
			"buffer":0,
			"byteLength":256,
			"byteOffset":10184,
			"target":34962
		},
		{
			"buffer":0,
			"byteLength":96,
			"byteOffset":10440,
			"target":34962
		},
		{
			"buffer":0,
			"byteLength":96,
			"byteOffset":10536,
			"target":34962
		},
		{
			"buffer":0,
			"byteLength":64,
			"byteOffset":10632,
			"target":34962
		},
		{
			"buffer":0,
			"byteLength":128,
			"byteOffset":10696,
			"target":34962
		},
		{
			"buffer":0,
			"byteLength":192,
			"byteOffset":10824,
			"target":34962
		},
		{
			"buffer":0,
			"byteLength":192,
			"byteOffset":11016,
			"target":34962
		},
		{
			"buffer":0,
			"byteLength":128,
			"byteOffset":11208,
			"target":34962
		},
		{
			"buffer":0,
			"byteLength":256,
			"byteOffset":11336,
			"target":34962
		},
		{
			"buffer":0,
			"byteLength":96,
			"byteOffset":11592,
			"target":34962
		},
		{
			"buffer":0,
			"byteLength":96,
			"byteOffset":11688,
			"target":34962
		},
		{
			"buffer":0,
			"byteLength":64,
			"byteOffset":11784,
			"target":34962
		},
		{
			"buffer":0,
			"byteLength":128,
			"byteOffset":11848,
			"target":34962
		},
		{
			"buffer":0,
			"byteLength":192,
			"byteOffset":11976,
			"target":34962
		},
		{
			"buffer":0,
			"byteLength":192,
			"byteOffset":12168,
			"target":34962
		},
		{
			"buffer":0,
			"byteLength":128,
			"byteOffset":12360,
			"target":34962
		},
		{
			"buffer":0,
			"byteLength":256,
			"byteOffset":12488,
			"target":34962
		},
		{
			"buffer":0,
			"byteLength":96,
			"byteOffset":12744,
			"target":34962
		},
		{
			"buffer":0,
			"byteLength":96,
			"byteOffset":12840,
			"target":34962
		},
		{
			"buffer":0,
			"byteLength":64,
			"byteOffset":12936,
			"target":34962
		},
		{
			"buffer":0,
			"byteLength":128,
			"byteOffset":13000,
			"target":34962
		},
		{
			"buffer":0,
			"byteLength":192,
			"byteOffset":13128,
			"target":34962
		},
		{
			"buffer":0,
			"byteLength":192,
			"byteOffset":13320,
			"target":34962
		},
		{
			"buffer":0,
			"byteLength":128,
			"byteOffset":13512,
			"target":34962
		},
		{
			"buffer":0,
			"byteLength":256,
			"byteOffset":13640,
			"target":34962
		},
		{
			"buffer":0,
			"byteLength":96,
			"byteOffset":13896,
			"target":34962
		},
		{
			"buffer":0,
			"byteLength":96,
			"byteOffset":13992,
			"target":34962
		},
		{
			"buffer":0,
			"byteLength":64,
			"byteOffset":14088,
			"target":34962
		},
		{
			"buffer":0,
			"byteLength":128,
			"byteOffset":14152,
			"target":34962
		},
		{
			"buffer":0,
			"byteLength":192,
			"byteOffset":14280,
			"target":34962
		},
		{
			"buffer":0,
			"byteLength":192,
			"byteOffset":14472,
			"target":34962
		},
		{
			"buffer":0,
			"byteLength":128,
			"byteOffset":14664,
			"target":34962
		},
		{
			"buffer":0,
			"byteLength":256,
			"byteOffset":14792,
			"target":34962
		},
		{
			"buffer":0,
			"byteLength":96,
			"byteOffset":15048,
			"target":34962
		},
		{
			"buffer":0,
			"byteLength":96,
			"byteOffset":15144,
			"target":34962
		},
		{
			"buffer":0,
			"byteLength":64,
			"byteOffset":15240,
			"target":34962
		},
		{
			"buffer":0,
			"byteLength":128,
			"byteOffset":15304,
			"target":34962
		},
		{
			"buffer":0,
			"byteLength":192,
			"byteOffset":15432,
			"target":34962
		},
		{
			"buffer":0,
			"byteLength":192,
			"byteOffset":15624,
			"target":34962
		},
		{
			"buffer":0,
			"byteLength":128,
			"byteOffset":15816,
			"target":34962
		},
		{
			"buffer":0,
			"byteLength":256,
			"byteOffset":15944,
			"target":34962
		},
		{
			"buffer":0,
			"byteLength":96,
			"byteOffset":16200,
			"target":34962
		},
		{
			"buffer":0,
			"byteLength":96,
			"byteOffset":16296,
			"target":34962
		},
		{
			"buffer":0,
			"byteLength":64,
			"byteOffset":16392,
			"target":34962
		},
		{
			"buffer":0,
			"byteLength":128,
			"byteOffset":16456,
			"target":34962
		},
		{
			"buffer":0,
			"byteLength":192,
			"byteOffset":16584,
			"target":34962
		},
		{
			"buffer":0,
			"byteLength":192,
			"byteOffset":16776,
			"target":34962
		},
		{
			"buffer":0,
			"byteLength":128,
			"byteOffset":16968,
			"target":34962
		},
		{
			"buffer":0,
			"byteLength":256,
			"byteOffset":17096,
			"target":34962
		},
		{
			"buffer":0,
			"byteLength":96,
			"byteOffset":17352,
			"target":34962
		},
		{
			"buffer":0,
			"byteLength":96,
			"byteOffset":17448,
			"target":34962
		},
		{
			"buffer":0,
			"byteLength":64,
			"byteOffset":17544,
			"target":34962
		},
		{
			"buffer":0,
			"byteLength":128,
			"byteOffset":17608,
			"target":34962
		},
		{
			"buffer":0,
			"byteLength":192,
			"byteOffset":17736,
			"target":34962
		},
		{
			"buffer":0,
			"byteLength":192,
			"byteOffset":17928,
			"target":34962
		},
		{
			"buffer":0,
			"byteLength":128,
			"byteOffset":18120,
			"target":34962
		},
		{
			"buffer":0,
			"byteLength":256,
			"byteOffset":18248,
			"target":34962
		}
	],
	"samplers":[
		{
			"magFilter":9729,
			"minFilter":9987
		}
	],
	"buffers":[
		{
			"byteLength":18504,
			"uri":"EOSD_s4.bin"
		}
	]
}
